<svg width="122" height="26" viewBox="0 0 122 26" fill="none" xmlns="http://www.w3.org/2000/svg">
<path d="M113.3 25C111.533 25 109.989 24.6111 108.667 23.8333C107.356 23.0444 106.333 21.95 105.6 20.55C104.867 19.1389 104.5 17.4944 104.5 15.6167C104.5 13.65 104.861 11.95 105.583 10.5167C106.306 9.07222 107.311 7.96111 108.6 7.18333C109.9 6.39445 111.422 6 113.167 6C114.978 6 116.517 6.41667 117.783 7.25C119.061 8.08333 120.017 9.27222 120.65 10.8167C121.294 12.3611 121.572 14.2 121.483 16.3333H118.483V15.2667C118.45 13.0556 118 11.4056 117.133 10.3167C116.267 9.21667 114.978 8.66667 113.267 8.66667C111.433 8.66667 110.039 9.25556 109.083 10.4333C108.128 11.6111 107.65 13.3 107.65 15.5C107.65 17.6222 108.128 19.2667 109.083 20.4333C110.039 21.6 111.4 22.1833 113.167 22.1833C114.356 22.1833 115.389 21.9111 116.267 21.3667C117.144 20.8222 117.833 20.0389 118.333 19.0167L121.183 20C120.483 21.5889 119.428 22.8222 118.017 23.7C116.617 24.5667 115.044 25 113.3 25ZM110 16.3333V13.95H119.95V16.3333H110Z" fill="white"/>
<path d="M93.5704 24.5L87.0371 6.5H90.0371L95.0871 20.7167L100.12 6.5H103.137L96.6038 24.5H93.5704Z" fill="white"/>
<path d="M75.7221 25C74.3777 25 73.2499 24.7556 72.3388 24.2667C71.4388 23.7667 70.7555 23.1111 70.2888 22.3C69.8332 21.4889 69.6055 20.6 69.6055 19.6333C69.6055 18.6889 69.7832 17.8722 70.1388 17.1833C70.5055 16.4833 71.0166 15.9056 71.6721 15.45C72.3277 14.9833 73.111 14.6167 74.0221 14.35C74.8777 14.1167 75.8332 13.9167 76.8888 13.75C77.9555 13.5722 79.0332 13.4111 80.1221 13.2667C81.211 13.1222 82.2277 12.9833 83.1721 12.85L82.1055 13.4667C82.1388 11.8667 81.8166 10.6833 81.1388 9.91667C80.4721 9.15 79.3166 8.76667 77.6721 8.76667C76.5832 8.76667 75.6277 9.01667 74.8055 9.51667C73.9944 10.0056 73.4221 10.8056 73.0888 11.9167L70.2721 11.0667C70.7055 9.48889 71.5444 8.25 72.7888 7.35C74.0332 6.45 75.6721 6 77.7055 6C79.3388 6 80.7388 6.29445 81.9055 6.88333C83.0832 7.46111 83.9277 8.33889 84.4388 9.51667C84.6944 10.0722 84.8555 10.6778 84.9221 11.3333C84.9888 11.9778 85.0221 12.6556 85.0221 13.3667V24.5H82.3888V20.5L82.1982 20.7887L80.2555 21.3005V23.8479C80.2555 23.8479 77.4666 25 75.7221 25ZM76.1721 22.5167C77.2388 22.5167 78.161 22.3278 78.9388 21.95C79.7277 21.5611 80.2555 21.3005 80.2555 21.3005L82.1982 20.7887L82.2935 20.6444L82.3888 20.5V15.4816C82.3888 15.4816 82.0721 15.3 82.0721 14.9333C82.0721 14.5667 83.1055 15.3833 83.1055 15.3833C82.1388 15.5167 81.1888 15.6444 80.2555 15.7667C79.3221 15.8889 78.4388 16.0222 77.6055 16.1667C76.7721 16.3 76.0221 16.4611 75.3555 16.65C74.8666 16.8056 74.4055 17.0056 73.9721 17.25C73.5499 17.4944 73.2055 17.8111 72.9388 18.2C72.6832 18.5778 72.5555 19.05 72.5555 19.6167C72.5555 20.1056 72.6777 20.5722 72.9221 21.0167C73.1777 21.4611 73.5666 21.8222 74.0888 22.1C74.6221 22.3778 75.3166 22.5167 76.1721 22.5167Z" fill="white"/>
<path d="M58.7559 24.5V6.5H61.4059V10.85L60.9725 10.2833C61.1836 9.72778 61.4559 9.21667 61.7892 8.75001C62.1336 8.28334 62.517 7.9 62.9392 7.6C63.4059 7.22223 63.9336 6.93334 64.5225 6.73334C65.1114 6.53334 65.7114 6.41667 66.3225 6.38334C66.9336 6.33889 67.5059 6.37778 68.0392 6.5V9.28334C67.417 9.11667 66.7336 9.07223 65.9892 9.15001C65.2447 9.22778 64.5559 9.50001 63.9225 9.96667C63.3447 10.3778 62.8948 10.8778 62.5725 11.4667C62.2614 12.0556 62.0447 12.6945 61.9225 13.3833C61.8003 14.0611 61.7392 14.7556 61.7392 15.4667V24.5H58.7559Z" fill="white"/>
<path d="M44.534 25C42.1451 25 40.1173 24.4722 38.4507 23.4167C36.784 22.3611 35.5118 20.8944 34.634 19.0167C33.7673 17.1389 33.334 14.9667 33.334 12.5C33.334 10.0333 33.7673 7.86111 34.634 5.98333C35.5118 4.10556 36.784 2.63889 38.4507 1.58333C40.1173 0.527778 42.1451 0 44.534 0C47.3118 0 49.5951 0.705555 51.384 2.11667C53.184 3.52778 54.4229 5.42778 55.1007 7.81667L52.084 8.61667C51.5951 6.82778 50.7229 5.41667 49.4673 4.38333C48.2118 3.35 46.5673 2.83333 44.534 2.83333C42.7451 2.83333 41.2562 3.23889 40.0673 4.05C38.8784 4.86111 37.984 5.99444 37.384 7.45C36.784 8.89444 36.4784 10.5778 36.4673 12.5C36.4562 14.4111 36.7507 16.0944 37.3507 17.55C37.9507 18.9944 38.8507 20.1278 40.0507 20.95C41.2507 21.7611 42.7451 22.1667 44.534 22.1667C46.5673 22.1667 48.2118 21.65 49.4673 20.6167C50.7229 19.5722 51.5951 18.1611 52.084 16.3833L55.1007 17.1833C54.4229 19.5611 53.184 21.4611 51.384 22.8833C49.5951 24.2944 47.3118 25 44.534 25Z" fill="white"/>
<path d="M14.7583 15.6844L11.4297 18.7896L9.32281 16.7195M23.4638 24.2238L12.5819 13.6142M0.675781 25.0001L9.32281 16.7195M9.32281 16.7195L2.21206 9.73268C1.52927 8.6976 0.470947 5.90289 1.69997 3.00468L12.5819 13.6142M12.5819 13.6142L14.3086 11.8028M22.6957 3.00468L14.3086 11.8028M14.3086 11.8028L11.9418 9.73268L20.6473 0.675751M14.3086 11.8028L16.2946 13.6142L25.0001 5.07483" stroke="white"/>
</svg>
