<svg width="58" height="59" viewBox="0 0 58 59" fill="none" xmlns="http://www.w3.org/2000/svg">
<path d="M5.03605 12.2275C5.66644 10.4401 12.8608 7.27036 36.595 8.89096M5.03605 12.2275C4.6542 12.6804 5.29264 13.2323 6.69095 13.7851M5.03605 12.2275C5.03605 13.1237 5.27699 14.3856 5.43562 15.3456M45.8145 13.3C43.524 14.1907 41.0477 14.8599 38.4863 15.3456M45.8145 13.3L51.4882 7.89918M45.8145 13.3V5.32543M45.8145 13.3L40.0605 7.89918M45.8145 13.3H38.0383M45.8145 13.3L51.4882 19.0841M45.8145 13.3H53.8907M45.8145 13.3C45.8344 14.0129 46.111 15.5046 45.9975 16.3982C45.7831 18.0863 44.9798 19.3312 44.0676 21.0455M45.8145 13.3L45.9353 15.3456M15.2012 26.1694C14.8228 33.3415 19.6184 35.6486 23.5278 36.0599M15.2012 26.1694C16.1074 26.3283 18.7472 26.5508 22.0568 26.1694M15.2012 26.1694C12.1453 26.2769 6.64582 24.8135 5.53479 16.004C5.51043 15.8109 5.47565 15.5879 5.43562 15.3456M23.5278 36.0599C24.5029 36.1625 25.4229 36.1471 26.1937 36.0599C26.69 36.0148 27.1625 35.9554 27.6121 35.8827M23.5278 36.0599V53.221L19.8144 54.2255C18.7724 54.6232 15.1773 55.9778 17.4889 56.8066C20.0499 57.4024 28.0063 58.2437 34.0162 56.2346C34.5687 55.9679 34.6143 55.0012 32.0129 54.2255L27.6121 53.221V35.8827M27.6121 35.8827C35.728 34.571 36.3962 28.9545 35.6496 26.1694C38.9058 26.1326 41.1816 24.8339 42.7415 23.0091M36.1224 15.7398C36.9164 15.6247 37.7053 15.4937 38.4863 15.3456M36.1224 15.7398C35.8903 14.3294 35.8867 12.3773 36.4368 10.4401M36.1224 15.7398C31.735 16.3755 27.1932 16.5229 22.9783 16.3635M42.7415 23.0091C48.1586 24.2545 52.8424 22.49 55.0341 17.7089C58.4966 10.1559 52.0018 3.31852 45.8145 3.40951C41.2526 3.47659 37.3813 7.11378 36.4368 10.4401M42.7415 23.0091C43.2592 22.4035 43.698 21.74 44.0676 21.0455M38.4863 15.3456C38.272 14.8251 38.0903 14.1137 38.0383 13.3M44.0676 21.0455C44.8644 21.2259 45.6032 21.3081 46.2874 21.3078M51.4882 7.89918C50.0261 6.36835 48.019 5.31926 45.8145 5.32543M51.4882 7.89918C52.9342 9.41318 53.8471 11.3984 53.8907 13.3M45.8145 5.32543C44.6696 5.32863 43.4714 5.61651 42.2687 6.2694C41.3647 6.76012 40.6387 7.3125 40.0605 7.89918M40.0605 7.89918C38.3495 9.63557 37.9344 11.6724 38.0383 13.3M51.4882 19.0841C52.9193 17.5529 53.6331 15.5477 53.8521 14.1341C53.8846 13.859 53.8971 13.5804 53.8907 13.3M51.4882 19.0841C50.2956 20.36 48.605 21.3068 46.2874 21.3078M46.2874 21.3078L45.9353 15.3456M6.69095 13.7851C6.23078 12.0743 11.5357 9.01011 36.4368 10.4401M6.69095 13.7851C9.16608 14.7635 14.022 15.7445 19.8144 16.1838M5.43562 15.3456C10.4261 17.8277 25.5126 21.3027 45.9353 15.3456M19.8144 16.1838L3 0.5M19.8144 16.1838C20.8422 16.2618 21.8995 16.3227 22.9783 16.3635M19.8144 16.1838L22.9783 16.3635" stroke="white"/>
</svg>
