<svg width="58" height="59" viewBox="0 0 58 59" fill="none" xmlns="http://www.w3.org/2000/svg">
<path d="M1.01752 41.1681H11.4343V42.4144M1.01752 57.4824H11.4343V53.7437M11.4343 53.7437H34.7588V53.7437C38.162 54.0057 40.4762 50.4445 43.0374 48.1882L48.5484 43.3332C49.2425 42.7217 49.9127 42.066 50.4294 41.2986C52.0133 38.9463 51.0859 38.3046 49.712 38.1577C48.0932 37.9848 46.5013 38.6687 45.1717 39.6082L36.2307 45.9265H23.7759C22.8701 45.3222 21.602 43.7739 23.7759 42.4144H31.5885C33.7398 42.4144 35.7778 38.789 31.5885 38.3358H16.1898L11.4343 42.4144M11.4343 53.7437V42.4144M5.43332 31.4249H1.58365C1.58365 34.6877 4.1501 37.7693 5.43332 38.3358H28.9843L53.2146 38.1092C56.8378 37.6087 57.102 33.1423 56.951 31.4249H53.3278M5.43332 31.4249C5.73526 23.7209 10.7549 8.08642 28.4181 7.18007C28.7442 7.16741 29.0844 7.16305 29.4372 7.16782M5.43332 31.4249H53.3278M53.3278 31.4249C52.1128 12.1477 37.4979 7.27673 29.4372 7.16782M29.4372 7.16782V2.53503H26.833H31.9281M29.4372 11.1453C27.1727 10.6544 21.3529 11.0094 16.1898 16.3568M14.6046 17.7164C14.2272 18.0185 13.2685 18.9853 12.4533 20.4354M5.43332 49.5519C2.7159 49.5519 2.14977 53.7437 5.43332 53.7437C8.71687 53.7437 8.49042 49.5519 5.43332 49.5519Z" stroke="white"/>
</svg>
