<svg width="118" height="16" viewBox="0 0 118 16" fill="none" xmlns="http://www.w3.org/2000/svg">
<g clip-path="url(#clip0_14539_7606)">
<path d="M3.35156 12.3711H0.888672V10.673H3.2627C3.85938 10.673 4.35872 10.5702 4.76074 10.3648C5.16699 10.1551 5.47168 9.83019 5.6748 9.38994C5.88216 8.94549 5.98584 8.37526 5.98584 7.67925C5.98584 6.98742 5.88216 6.42138 5.6748 5.98113C5.47168 5.54088 5.16699 5.21803 4.76074 5.01258C4.35872 4.80294 3.86149 4.69811 3.26904 4.69811H0.850586V3H3.3833C4.33545 3 5.1543 3.18868 5.83984 3.56604C6.52539 3.9392 7.05225 4.47589 7.42041 5.1761C7.78857 5.87212 7.97266 6.7065 7.97266 7.67925C7.97266 8.65618 7.78646 9.49476 7.41406 10.195C7.0459 10.8952 6.51693 11.434 5.82715 11.8113C5.13737 12.1845 4.31217 12.3711 3.35156 12.3711ZM1.99316 3V12.3711H0V3H1.99316Z" fill="black"/>
<path d="M12.1875 12.5094C11.4723 12.5094 10.8524 12.3585 10.3276 12.0566C9.80713 11.7505 9.40511 11.327 9.12158 10.7862C8.84229 10.2411 8.70264 9.60797 8.70264 8.88679C8.70264 8.15723 8.84229 7.52201 9.12158 6.98113C9.40511 6.43606 9.80713 6.01258 10.3276 5.71069C10.8524 5.40461 11.4723 5.25157 12.1875 5.25157C12.9069 5.25157 13.5269 5.40461 14.0474 5.71069C14.5721 6.01258 14.9741 6.43606 15.2534 6.98113C15.5369 7.52201 15.6787 8.15723 15.6787 8.88679C15.6787 9.60797 15.5369 10.2411 15.2534 10.7862C14.9741 11.327 14.5721 11.7505 14.0474 12.0566C13.5269 12.3585 12.9069 12.5094 12.1875 12.5094ZM12.2002 10.9874C12.526 10.9874 12.799 10.8973 13.019 10.717C13.2391 10.5325 13.4041 10.2809 13.5142 9.96226C13.6284 9.64361 13.6855 9.28092 13.6855 8.87421C13.6855 8.46331 13.6284 8.10063 13.5142 7.78616C13.4041 7.4717 13.2391 7.22432 13.019 7.04403C12.799 6.86373 12.526 6.77358 12.2002 6.77358C11.8701 6.77358 11.5929 6.86373 11.3687 7.04403C11.1486 7.22432 10.9814 7.4717 10.8672 7.78616C10.7572 8.10063 10.7021 8.46331 10.7021 8.87421C10.7021 9.28092 10.7572 9.64361 10.8672 9.96226C10.9814 10.2809 11.1486 10.5325 11.3687 10.717C11.5929 10.8973 11.8701 10.9874 12.2002 10.9874Z" fill="black"/>
<path d="M17.7607 12.3711L15.8311 5.33962H17.8242L18.9224 10.0692H18.9858L20.1348 5.33962H22.0835L23.2451 10.0377H23.3086L24.3877 5.33962H26.3745L24.4448 12.3711H22.3691L21.1504 7.94969H21.0615L19.8428 12.3711H17.7607Z" fill="black"/>
<path d="M28.958 8.30818V12.3711H26.9966V5.33962H28.9263V6.5912H28.9961C29.1569 6.1761 29.4129 5.84906 29.7642 5.61006C30.1154 5.37107 30.5555 5.25157 31.0845 5.25157C31.5754 5.25157 32.0028 5.35849 32.3667 5.57233C32.7349 5.78616 33.0205 6.09015 33.2236 6.48428C33.4268 6.87841 33.5283 7.3501 33.5283 7.89937V12.3711H31.5669V8.24528C31.5669 7.81761 31.4548 7.48218 31.2305 7.23899C31.0062 6.99161 30.6973 6.86792 30.3037 6.86792C30.0413 6.86792 29.8086 6.92662 29.6055 7.04403C29.4023 7.15723 29.2437 7.32075 29.1294 7.53459C29.0151 7.74843 28.958 8.00629 28.958 8.30818Z" fill="black"/>
<path d="M36.6514 3V12.3711H34.6899V3H36.6514Z" fill="black"/>
<path d="M41.0059 12.5094C40.2907 12.5094 39.6707 12.3585 39.146 12.0566C38.6255 11.7505 38.2235 11.327 37.9399 10.7862C37.6606 10.2411 37.521 9.60797 37.521 8.88679C37.521 8.15723 37.6606 7.52201 37.9399 6.98113C38.2235 6.43606 38.6255 6.01258 39.146 5.71069C39.6707 5.40461 40.2907 5.25157 41.0059 5.25157C41.7253 5.25157 42.3452 5.40461 42.8657 5.71069C43.3905 6.01258 43.7925 6.43606 44.0718 6.98113C44.3553 7.52201 44.4971 8.15723 44.4971 8.88679C44.4971 9.60797 44.3553 10.2411 44.0718 10.7862C43.7925 11.327 43.3905 11.7505 42.8657 12.0566C42.3452 12.3585 41.7253 12.5094 41.0059 12.5094ZM41.0186 10.9874C41.3444 10.9874 41.6174 10.8973 41.8374 10.717C42.0575 10.5325 42.2225 10.2809 42.3325 9.96226C42.4468 9.64361 42.5039 9.28092 42.5039 8.87421C42.5039 8.46331 42.4468 8.10063 42.3325 7.78616C42.2225 7.4717 42.0575 7.22432 41.8374 7.04403C41.6174 6.86373 41.3444 6.77358 41.0186 6.77358C40.6885 6.77358 40.4113 6.86373 40.187 7.04403C39.967 7.22432 39.7998 7.4717 39.6855 7.78616C39.5755 8.10063 39.5205 8.46331 39.5205 8.87421C39.5205 9.28092 39.5755 9.64361 39.6855 9.96226C39.7998 10.2809 39.967 10.5325 40.187 10.717C40.4113 10.8973 40.6885 10.9874 41.0186 10.9874Z" fill="black"/>
<path d="M47.3853 12.5031C46.9367 12.5031 46.5326 12.4256 46.1729 12.2704C45.8174 12.1111 45.5381 11.8763 45.335 11.566C45.1318 11.2558 45.0303 10.87 45.0303 10.4088C45.0303 10.0147 45.1022 9.68763 45.2461 9.42767C45.39 9.16352 45.5868 8.94969 45.8364 8.78616C46.0861 8.62264 46.3696 8.49895 46.687 8.41509C47.0044 8.33124 47.3408 8.27254 47.6963 8.23899C48.1068 8.20126 48.4368 8.16352 48.6865 8.12579C48.9362 8.08805 49.1182 8.03145 49.2324 7.95597C49.3509 7.87631 49.4102 7.7631 49.4102 7.61635V7.58491C49.4102 7.2956 49.3171 7.07128 49.1309 6.91195C48.9489 6.75262 48.6908 6.67296 48.3564 6.67296C48.0052 6.67296 47.7238 6.75052 47.5122 6.90566C47.3049 7.0566 47.1673 7.24948 47.0996 7.48428L45.2778 7.33962C45.3709 6.91195 45.5529 6.54298 45.8237 6.2327C46.0946 5.91824 46.4437 5.67715 46.8711 5.50943C47.3027 5.33753 47.8021 5.25157 48.3691 5.25157C48.7627 5.25157 49.1393 5.29769 49.499 5.38994C49.8587 5.48218 50.1782 5.62474 50.4575 5.81761C50.741 6.00629 50.9653 6.25157 51.1304 6.55346C51.2954 6.85535 51.3779 7.21384 51.3779 7.62893V12.3711H49.5054V11.3899H49.4546C49.3403 11.6122 49.188 11.8071 48.9976 11.9748C48.8071 12.1384 48.5786 12.2683 48.312 12.3648C48.0454 12.457 47.7365 12.5031 47.3853 12.5031ZM47.9502 11.1572C48.238 11.1572 48.4919 11.1006 48.7119 10.9874C48.9362 10.87 49.1097 10.7149 49.2324 10.522C49.3594 10.3249 49.4229 10.1048 49.4229 9.86164V9.11321C49.3636 9.15094 49.279 9.18658 49.1689 9.22013C49.0632 9.25367 48.9447 9.28302 48.8135 9.30818C48.6823 9.33333 48.5511 9.35639 48.4199 9.37736C48.2887 9.39413 48.1702 9.4109 48.0645 9.42767C47.8317 9.46122 47.6286 9.51572 47.4551 9.5912C47.2816 9.66247 47.1462 9.76101 47.0488 9.88679C46.9557 10.0084 46.9092 10.1614 46.9092 10.3459C46.9092 10.6101 47.0065 10.8113 47.2012 10.9497C47.3958 11.0881 47.6455 11.1572 47.9502 11.1572Z" fill="black"/>
<path d="M55.1167 12.4843C54.575 12.4843 54.0863 12.3459 53.6504 12.0692C53.2145 11.7925 52.8696 11.3857 52.6157 10.8491C52.3618 10.3082 52.2349 9.6478 52.2349 8.86792C52.2349 8.06289 52.366 7.39203 52.6284 6.85535C52.8908 6.31866 53.2399 5.91824 53.6758 5.65409C54.1117 5.38574 54.5877 5.25157 55.104 5.25157C55.5018 5.25157 55.834 5.31866 56.1006 5.45283C56.3672 5.58281 56.583 5.74633 56.748 5.9434C56.9131 6.14046 57.0379 6.33543 57.1226 6.5283H57.1797V3H59.1475V12.3711H57.2114V11.2453H57.1226C57.0337 11.4382 56.9046 11.631 56.7354 11.8239C56.5661 12.0126 56.3481 12.1698 56.0815 12.2956C55.8192 12.4214 55.4976 12.4843 55.1167 12.4843ZM55.7324 10.9371C56.0498 10.9371 56.3185 10.8512 56.5386 10.6792C56.7629 10.5031 56.9321 10.26 57.0464 9.94969C57.1649 9.63941 57.2241 9.27673 57.2241 8.86164C57.2241 8.44235 57.167 8.07966 57.0527 7.77358C56.9385 7.46331 56.7692 7.22432 56.5449 7.0566C56.3206 6.8847 56.0498 6.79874 55.7324 6.79874C55.4108 6.79874 55.14 6.88679 54.9199 7.06289C54.6999 7.23899 54.5327 7.48218 54.4185 7.79245C54.3042 8.09853 54.2471 8.45493 54.2471 8.86164C54.2471 9.26834 54.3042 9.62893 54.4185 9.9434C54.5327 10.2537 54.6999 10.4969 54.9199 10.673C55.1442 10.8491 55.415 10.9371 55.7324 10.9371Z" fill="black"/>
<path d="M62.5562 4.63522V3H70.3257V4.63522H67.4312V12.3711H65.457V4.63522H62.5562Z" fill="black"/>
<path d="M73.3662 12.5094C72.6383 12.5094 72.0099 12.3627 71.481 12.0692C70.952 11.7757 70.5457 11.3585 70.2622 10.8176C69.9829 10.2725 69.8433 9.62893 69.8433 8.88679C69.8433 8.16562 69.9829 7.53249 70.2622 6.98742C70.5457 6.44235 70.9435 6.01677 71.4556 5.71069C71.9718 5.40461 72.577 5.25157 73.271 5.25157C73.7407 5.25157 74.1787 5.32704 74.585 5.47799C74.9912 5.62474 75.3467 5.84696 75.6514 6.14465C75.9561 6.43816 76.193 6.80922 76.3623 7.25786C76.5316 7.70231 76.6162 8.22432 76.6162 8.8239V9.3522H70.624V8.15094H75.6641L74.75 8.46541C74.75 8.10901 74.695 7.79874 74.585 7.53459C74.4749 7.27044 74.3099 7.06709 74.0898 6.92453C73.874 6.77778 73.6053 6.7044 73.2837 6.7044C72.9621 6.7044 72.6891 6.77778 72.4648 6.92453C72.2448 7.07128 72.0755 7.27044 71.957 7.52201C71.8385 7.77358 71.7793 8.06289 71.7793 8.38994V9.23899C71.7793 9.62055 71.847 9.94759 71.9824 10.2201C72.1178 10.4885 72.3062 10.696 72.5474 10.8428C72.7928 10.9853 73.0742 11.0566 73.3916 11.0566C73.6117 11.0566 73.8105 11.0252 73.9883 10.9623C74.166 10.8994 74.3184 10.8071 74.4453 10.6855C74.5765 10.5639 74.6738 10.4172 74.7373 10.2453L76.5527 10.3648C76.4639 10.7966 76.2777 11.174 75.9941 11.4969C75.7148 11.8155 75.353 12.065 74.9087 12.2453C74.4644 12.4214 73.9502 12.5094 73.3662 12.5094Z" fill="black"/>
<path d="M77.4604 12.3711V5.33962H79.3203V6.5912H79.4092C79.5573 6.1761 79.8049 5.84906 80.1519 5.61006C80.4989 5.37107 80.9115 5.25157 81.3896 5.25157C81.8763 5.25157 82.2889 5.37317 82.6274 5.61635C82.9702 5.85535 83.1987 6.18029 83.313 6.5912H83.3892C83.533 6.18449 83.7954 5.85954 84.1763 5.61635C84.5571 5.37317 85.0057 5.25157 85.522 5.25157C86.1821 5.25157 86.7196 5.45912 87.1343 5.87421C87.5532 6.28931 87.7627 6.87841 87.7627 7.64151V12.3711H85.7949V8.03145C85.7949 7.63732 85.6891 7.34382 85.4775 7.15094C85.2702 6.95807 85.0099 6.86164 84.6968 6.86164C84.3413 6.86164 84.062 6.97484 83.8589 7.20126C83.66 7.42348 83.5605 7.71698 83.5605 8.08176V12.3711H81.6562V7.98113C81.6562 7.64151 81.5568 7.37107 81.3579 7.16981C81.159 6.96436 80.8988 6.86164 80.5771 6.86164C80.3571 6.86164 80.1603 6.91614 79.9868 7.02516C79.8133 7.13417 79.6758 7.28512 79.5742 7.47799C79.4727 7.66667 79.4219 7.89308 79.4219 8.15723V12.3711H77.4604Z" fill="black"/>
<path d="M88.9243 15V5.33962H90.854V6.5283H90.9429C91.0317 6.33543 91.1587 6.14046 91.3237 5.9434C91.4888 5.74633 91.7046 5.58281 91.9712 5.45283C92.2378 5.31866 92.5679 5.25157 92.9614 5.25157C93.4819 5.25157 93.958 5.38574 94.3896 5.65409C94.8255 5.91824 95.1746 6.31866 95.437 6.85535C95.6994 7.39203 95.8306 8.06289 95.8306 8.86792C95.8306 9.6478 95.7036 10.3082 95.4497 10.8491C95.1958 11.3857 94.8509 11.7925 94.415 12.0692C93.9834 12.3459 93.4967 12.4843 92.9551 12.4843C92.5742 12.4843 92.2505 12.4214 91.9839 12.2956C91.7173 12.1698 91.4993 12.0126 91.3301 11.8239C91.165 11.631 91.036 11.4382 90.9429 11.2453H90.8857V15H88.9243ZM92.333 10.9371C92.6546 10.9371 92.9255 10.8491 93.1455 10.673C93.3656 10.4969 93.5327 10.2537 93.647 9.9434C93.7612 9.62893 93.8184 9.26834 93.8184 8.86164C93.8184 8.45493 93.7612 8.09853 93.647 7.79245C93.5369 7.48218 93.3719 7.23899 93.1519 7.06289C92.9318 6.88679 92.6589 6.79874 92.333 6.79874C92.0156 6.79874 91.7448 6.8847 91.5205 7.0566C91.3005 7.22432 91.1312 7.46331 91.0127 7.77358C90.8984 8.07966 90.8413 8.44235 90.8413 8.86164C90.8413 9.27673 90.9006 9.63941 91.019 9.94969C91.1375 10.26 91.3068 10.5031 91.5269 10.6792C91.7511 10.8512 92.0199 10.9371 92.333 10.9371Z" fill="black"/>
<path d="M98.6553 3V12.3711H96.6938V3H98.6553Z" fill="black"/>
<path d="M101.835 12.5031C101.387 12.5031 100.983 12.4256 100.623 12.2704C100.268 12.1111 99.9883 11.8763 99.7852 11.566C99.582 11.2558 99.4805 10.87 99.4805 10.4088C99.4805 10.0147 99.5524 9.68763 99.6963 9.42767C99.8402 9.16352 100.037 8.94969 100.287 8.78616C100.536 8.62264 100.82 8.49895 101.137 8.41509C101.455 8.33124 101.791 8.27254 102.146 8.23899C102.557 8.20126 102.887 8.16352 103.137 8.12579C103.386 8.08805 103.568 8.03145 103.683 7.95597C103.801 7.87631 103.86 7.7631 103.86 7.61635V7.58491C103.86 7.2956 103.767 7.07128 103.581 6.91195C103.399 6.75262 103.141 6.67296 102.807 6.67296C102.455 6.67296 102.174 6.75052 101.962 6.90566C101.755 7.0566 101.618 7.24948 101.55 7.48428L99.728 7.33962C99.8211 6.91195 100.003 6.54298 100.274 6.2327C100.545 5.91824 100.894 5.67715 101.321 5.50943C101.753 5.33753 102.252 5.25157 102.819 5.25157C103.213 5.25157 103.59 5.29769 103.949 5.38994C104.309 5.48218 104.628 5.62474 104.908 5.81761C105.191 6.00629 105.416 6.25157 105.581 6.55346C105.746 6.85535 105.828 7.21384 105.828 7.62893V12.3711H103.956V11.3899H103.905C103.791 11.6122 103.638 11.8071 103.448 11.9748C103.257 12.1384 103.029 12.2683 102.762 12.3648C102.496 12.457 102.187 12.5031 101.835 12.5031ZM102.4 11.1572C102.688 11.1572 102.942 11.1006 103.162 10.9874C103.386 10.87 103.56 10.7149 103.683 10.522C103.81 10.3249 103.873 10.1048 103.873 9.86164V9.11321C103.814 9.15094 103.729 9.18658 103.619 9.22013C103.513 9.25367 103.395 9.28302 103.264 9.30818C103.132 9.33333 103.001 9.35639 102.87 9.37736C102.739 9.39413 102.62 9.4109 102.515 9.42767C102.282 9.46122 102.079 9.51572 101.905 9.5912C101.732 9.66247 101.596 9.76101 101.499 9.88679C101.406 10.0084 101.359 10.1614 101.359 10.3459C101.359 10.6101 101.457 10.8113 101.651 10.9497C101.846 11.0881 102.096 11.1572 102.4 11.1572Z" fill="black"/>
<path d="M110.741 5.33962V6.81132H106.469V5.33962H110.741ZM107.44 3.66667H109.402V10.2075C109.402 10.4423 109.455 10.6164 109.561 10.7296C109.666 10.8386 109.836 10.8931 110.068 10.8931C110.145 10.8931 110.229 10.8868 110.322 10.8742C110.415 10.8616 110.496 10.847 110.563 10.8302L110.875 12.2893C110.659 12.3522 110.449 12.3983 110.246 12.4277C110.047 12.457 109.85 12.4717 109.656 12.4717C108.949 12.4717 108.403 12.2977 108.018 11.9497C107.633 11.5975 107.44 11.1027 107.44 10.4654V3.66667Z" fill="black"/>
<path d="M114.753 12.5094C114.025 12.5094 113.397 12.3627 112.868 12.0692C112.339 11.7757 111.932 11.3585 111.649 10.8176C111.37 10.2725 111.23 9.62893 111.23 8.88679C111.23 8.16562 111.37 7.53249 111.649 6.98742C111.932 6.44235 112.33 6.01677 112.842 5.71069C113.359 5.40461 113.964 5.25157 114.658 5.25157C115.127 5.25157 115.565 5.32704 115.972 5.47799C116.378 5.62474 116.733 5.84696 117.038 6.14465C117.343 6.43816 117.58 6.80922 117.749 7.25786C117.918 7.70231 118.003 8.22432 118.003 8.8239V9.3522H112.011V8.15094H117.051L116.137 8.46541C116.137 8.10901 116.082 7.79874 115.972 7.53459C115.862 7.27044 115.697 7.06709 115.477 6.92453C115.261 6.77778 114.992 6.7044 114.67 6.7044C114.349 6.7044 114.076 6.77778 113.852 6.92453C113.632 7.07128 113.462 7.27044 113.344 7.52201C113.225 7.77358 113.166 8.06289 113.166 8.38994V9.23899C113.166 9.62055 113.234 9.94759 113.369 10.2201C113.505 10.4885 113.693 10.696 113.934 10.8428C114.18 10.9853 114.461 11.0566 114.778 11.0566C114.998 11.0566 115.197 11.0252 115.375 10.9623C115.553 10.8994 115.705 10.8071 115.832 10.6855C115.963 10.5639 116.061 10.4172 116.124 10.2453L117.939 10.3648C117.851 10.7966 117.664 11.174 117.381 11.4969C117.102 11.8155 116.74 12.065 116.295 12.2453C115.851 12.4214 115.337 12.5094 114.753 12.5094Z" fill="black"/>
</g>
<defs>
<clipPath id="clip0_14539_7606">
<rect width="118" height="16" fill="white"/>
</clipPath>
</defs>
</svg>
