<svg width="17" height="13" viewBox="0 0 17 13" fill="none" xmlns="http://www.w3.org/2000/svg">
<path d="M16.8307 3.08928C16.8307 3.08928 16.6646 1.91294 16.1533 1.39642C15.5059 0.716607 14.782 0.713274 14.45 0.673285C12.0727 0.5 8.50332 0.5 8.50332 0.5H8.49668C8.49668 0.5 4.92734 0.5 2.55 0.673285C2.21797 0.713274 1.49414 0.716607 0.84668 1.39642C0.335352 1.91294 0.172656 3.08928 0.172656 3.08928C0.172656 3.08928 0 4.47223 0 5.85185V7.14482C0 8.52444 0.169336 9.90739 0.169336 9.90739C0.169336 9.90739 0.335351 11.0837 0.843359 11.6003C1.49082 12.2801 2.34082 12.2567 2.71934 12.33C4.08066 12.46 8.5 12.5 8.5 12.5C8.5 12.5 12.0727 12.4933 14.45 12.3234C14.782 12.2834 15.5059 12.2801 16.1533 11.6003C16.6646 11.0837 16.8307 9.90739 16.8307 9.90739C16.8307 9.90739 17 8.52777 17 7.14482V5.85185C17 4.47223 16.8307 3.08928 16.8307 3.08928ZM6.74356 8.71438V3.91905L11.3355 6.32505L6.74356 8.71438Z" fill="white"/>
</svg>
