<svg width="15" height="13" viewBox="0 0 15 13" fill="none" xmlns="http://www.w3.org/2000/svg">
<path d="M4.71885 12.594C10.3778 12.594 13.4739 7.9044 13.4739 3.83888C13.4739 3.70704 13.471 3.57228 13.4651 3.44044C14.0674 3.00488 14.5872 2.46537 15 1.84728C14.4391 2.09684 13.8435 2.25983 13.2337 2.33067C13.8758 1.94578 14.3566 1.34113 14.5869 0.628818C13.9828 0.986812 13.3222 1.23935 12.6334 1.3756C12.1693 0.882439 11.5556 0.555911 10.8873 0.446496C10.219 0.33708 9.53324 0.45087 8.93609 0.770274C8.33893 1.08968 7.86363 1.5969 7.58365 2.21353C7.30368 2.83016 7.23464 3.52185 7.38721 4.18165C6.16406 4.12027 4.96746 3.80253 3.87499 3.24903C2.78252 2.69552 1.81856 1.91861 1.04561 0.968662C0.65275 1.64599 0.532535 2.44749 0.709394 3.21027C0.886253 3.97305 1.34691 4.63987 1.99775 5.07521C1.50914 5.05969 1.03123 4.92814 0.603516 4.69142V4.7295C0.603078 5.44031 0.848811 6.12933 1.29894 6.67945C1.74908 7.22956 2.37583 7.60681 3.07266 7.74708C2.62003 7.87092 2.14499 7.88896 1.68428 7.79981C1.88091 8.41111 2.26348 8.94577 2.77861 9.32917C3.29373 9.71257 3.9157 9.92559 4.55771 9.93849C3.46777 10.7947 2.12136 11.259 0.735352 11.2568C0.489554 11.2565 0.243999 11.2414 0 11.2117C1.40804 12.1151 3.04596 12.5948 4.71885 12.594Z" fill="white"/>
</svg>
