<svg width="58" height="59" viewBox="0 0 58 59" fill="none" xmlns="http://www.w3.org/2000/svg">
<path d="M43.5178 28.2599C48.4754 32.2657 53.9298 28.8388 53.9298 28.8388V57.4825H43.5178M43.5178 28.2599C38.9758 33.1288 37.2403 27.3968 34.8393 27.3968C33.5852 27.3968 32.8698 28.1243 32.1577 28.8388M43.5178 28.2599C43.5178 39.672 43.5178 57.4825 43.5178 57.4825M43.5178 57.4825H5.08772V27.3968C6.2143 28.9175 7.34814 29.787 8.43477 30.1999M8.43477 30.1999C11.3657 31.3137 11.3464 27.3968 14.1828 27.3968C16.4599 27.3968 17.3842 29.8139 19.2197 30.1999M8.43477 30.1999C5.33565 20.7577 3.15821 7.65366 10.1058 2.3526C15.629 -1.86168 18.6569 10.8343 19.2197 19.0122M19.2197 19.0122C19.2197 19.0122 21.5502 13.5129 24.4262 13.217V9.39462M19.2197 19.0122C19.2197 19.0122 19.2197 25.919 19.2197 30.1999M19.2197 30.1999C21.0858 30.2573 21.9853 27.5543 24.4262 27.3968C27.2028 27.2175 27.0253 30.3709 29.8024 30.1999C30.8578 30.135 31.5064 29.4924 32.1577 28.8388M24.4262 9.39462H30.3765M24.4262 9.39462H23.1866V5.20235H31.6162V9.39462H30.3765M30.3765 9.39462V13.217C31.5748 13.0937 34.1451 13.7102 34.8393 17.1627M34.8393 17.1627C37.6633 14.8447 41.218 16.5051 42.8969 19.0122M34.8393 17.1627C31.8352 19.6283 30.6701 23.8286 32.1577 28.8388M42.8969 19.0122C44.7151 17.5737 48.8225 16.1269 50.7067 21.8482C51.0786 23.4363 51.4753 27.2829 50.0869 29.9639M42.8969 19.0122C42.9383 16.875 44.1118 12.8964 48.4754 14.0801" stroke="white"/>
</svg>
